# Blender v2.79 (sub 6) OBJ File: ''
# www.blender.org
o Cube
v 1.000000 -1.000000 -1.000000
v 1.000000 -1.000000 1.000000
v -1.000000 -1.000000 1.000000
v -1.000000 -1.000000 -1.000000
v 1.000000 1.000000 -1.000000
v 1.000000 1.000000 1.000000
v -1.000000 1.000000 1.000000
v -1.000000 1.000000 -1.000000
vt 0.501274 0.498364
vt 0.501274 0.749711
vt 0.249927 0.749711
vt 0.249927 0.498364
vt 1.004889 0.749753
vt 0.752337 0.749753
vt 0.752337 0.497201
vt 1.004889 0.497201
vt 0.752620 0.498364
vt 0.752620 0.749711
vt 0.501274 1.001058
vt 0.249927 1.001058
vt -0.001420 0.749711
vt -0.001420 0.498364
vt 0.501274 0.247018
vt 0.249927 0.247018
vn 0.0000 -1.0000 0.0000
vn 0.0000 1.0000 0.0000
vn 1.0000 0.0000 0.0000
vn -0.0000 -0.0000 1.0000
vn -1.0000 -0.0000 -0.0000
vn 0.0000 0.0000 -1.0000
s off
f 1/1/1 2/2/1 3/3/1 4/4/1
f 5/5/2 8/6/2 7/7/2 6/8/2
f 1/1/3 5/9/3 6/10/3 2/2/3
f 2/2/4 6/11/4 7/12/4 3/3/4
f 3/3/5 7/13/5 8/14/5 4/4/5
f 5/15/6 1/1/6 4/4/6 8/16/6
